<svg width="24" height="24" viewBox="0 0 700 700" fill="none" xmlns="http://www.w3.org/2000/svg">
<path d="M523.585 425.293C514.218 420.481 467.553 397.621 458.873 394.527C450.193 391.261 443.833 389.715 437.56 399.34C431.2 408.879 413.153 430.106 407.481 436.551C401.981 442.911 396.395 443.684 387.028 438.958C331.339 411.113 294.815 389.285 258.119 326.292C248.408 309.534 267.83 310.737 285.963 274.556C289.057 268.197 287.51 262.783 285.104 257.97C282.698 253.158 263.791 206.579 255.885 187.586C248.236 169.109 240.33 171.688 234.572 171.344C229.072 171 222.798 171 216.439 171C210.079 171 199.852 173.406 191.172 182.774C182.493 192.313 158 215.259 158 261.837C158 308.416 191.946 353.534 196.587 359.894C201.399 366.253 263.361 461.817 358.496 502.982C418.653 528.936 442.201 531.17 472.279 526.701C490.584 523.951 528.312 503.841 536.132 481.583C543.952 459.411 543.952 440.419 541.632 436.465C539.312 432.254 532.952 429.848 523.585 425.293Z" stroke="black" stroke-width="50"/>
<path d="M654.376 222.128C671.535 263.081 680.221 306.583 680 351.464C679.779 396.19 670.931 439.405 653.563 480.028L653.552 480.054C636.839 519.297 612.923 554.479 582.489 584.617L582.472 584.634C552.132 614.754 516.729 638.31 477.305 654.743C437.019 671.457 394.244 680 350.078 680H348.482C297.377 679.773 246.621 667.538 201.279 644.646C198.484 643.235 195.397 642.5 192.266 642.5H73.4375C64.6395 642.5 57.5 635.361 57.5 626.562V507.812C57.5 504.681 56.7648 501.594 55.3536 498.799C32.4557 453.445 20.2208 402.673 19.9998 351.554L19.9998 351.542C19.7785 306.852 28.3259 263.478 45.2683 222.669L45.2696 222.665C61.6061 183.296 85.2241 147.964 115.383 117.511C145.507 87.092 180.692 63.2392 219.975 46.4351C260.583 29.0745 303.78 20.2276 348.488 20H350C394.399 20 437.389 28.6207 477.88 45.6271L477.908 45.6389C517.501 62.1972 552.98 86.1096 583.428 116.556C613.875 147.079 637.728 182.571 654.376 222.128ZM654.376 222.128C654.373 222.12 654.37 222.113 654.367 222.105L672.805 214.378L654.379 222.133C654.378 222.131 654.377 222.13 654.376 222.128ZM568.837 570.775L568.847 570.765C627.625 512.488 660.28 434.525 660.781 351.449L660.781 351.407C660.948 309.223 652.852 268.278 636.643 229.679C621.021 192.422 598.46 158.926 569.845 130.311C541.149 101.615 507.728 79.1324 470.474 63.5114C470.472 63.5105 470.47 63.5096 470.468 63.5088C432.286 47.4697 391.764 39.375 350.078 39.375H348.75L348.67 39.3752C265.501 39.7088 187.516 72.287 129.225 131.163C70.8591 190.035 39.0416 268.262 39.3752 351.408L39.3753 351.428C39.6256 401.747 52.1336 451.743 75.7105 495.971L75.7298 496.007L76.875 498.145V603.125C76.875 614.171 85.8293 623.125 96.875 623.125H201.855L203.993 624.27L204.029 624.29C248.257 647.866 298.253 660.374 348.572 660.625L348.672 660.625H350C432.596 660.625 510.314 628.714 568.837 570.775Z" stroke="black" stroke-width="40" stroke-linejoin="round"/>
</svg>
