<svg width="800" height="800" viewBox="0 0 800 800" fill="none" xmlns="http://www.w3.org/2000/svg">
<path d="M573.585 475.293C564.218 470.481 517.553 447.621 508.873 444.527C500.193 441.261 493.833 439.715 487.56 449.34C481.2 458.879 463.153 480.106 457.481 486.551C451.981 492.911 446.395 493.684 437.028 488.958C381.339 461.113 344.815 439.285 308.119 376.292C298.408 359.534 317.83 360.737 335.963 324.556C339.057 318.197 337.51 312.783 335.104 307.97C332.698 303.158 313.791 256.579 305.885 237.586C298.236 219.109 290.33 221.688 284.572 221.344C279.072 221 272.798 221 266.439 221C260.079 221 249.852 223.406 241.172 232.774C232.493 242.313 208 265.259 208 311.837C208 358.416 241.946 403.534 246.587 409.894C251.399 416.253 313.361 511.817 408.496 552.982C468.653 578.936 492.201 581.17 522.279 576.701C540.584 573.951 578.312 553.841 586.132 531.583C593.952 509.411 593.952 490.419 591.632 486.465C589.312 482.254 582.952 479.848 573.585 475.293Z" stroke="black" stroke-width="40"/>
<path d="M529.827 91.0216L529.816 91.0172C488.706 73.7507 445.057 65 400 65H398.475C353.108 65.2293 309.246 74.2083 268.009 91.8381L529.827 91.0216ZM529.827 91.0216L529.837 91.026M529.827 91.0216L529.837 91.026M529.837 91.026C570.04 107.839 606.062 132.121 636.965 163.022C667.864 193.997 692.08 230.027 708.981 270.179C726.404 311.757 735.225 355.93 735 401.488C734.776 446.869 725.796 490.745 708.161 531.994L708.157 532.004L708.153 532.013C691.184 571.856 666.899 607.578 636.008 638.17L636.001 638.176L635.995 638.183C605.193 668.76 569.248 692.676 529.232 709.356C488.333 726.326 444.903 735 400.078 735H398.474C346.59 734.771 295.065 722.353 249.026 699.11L245.837 697.5H242.266H123.438C111.878 697.5 102.5 688.122 102.5 676.562V557.812V554.241L100.89 551.052C77.6426 505.005 65.2242 453.47 64.9999 401.576L64.9998 401.566C64.7753 356.213 73.4514 312.179 90.6504 270.751L90.6515 270.749M529.837 91.026L90.6515 270.749M90.6515 270.749C107.24 230.773 131.223 194.899 161.83 163.992C192.411 133.113 228.135 108.895 268.006 91.8392L90.6515 270.749ZM50.0242 401.641L50 401.641L50.0242 401.641ZM615.319 617.222L615.327 617.214C673.16 559.874 705.288 483.179 705.781 401.418L705.781 401.403L705.781 401.387C705.945 359.866 697.979 319.588 682.033 281.614C666.664 244.961 644.47 212.007 616.31 183.847C588.069 155.605 555.191 133.49 518.539 118.122C518.538 118.121 518.536 118.121 518.534 118.12C480.973 102.341 441.108 94.375 400.078 94.375H398.75H398.72L398.69 94.3751C316.845 94.7035 240.136 126.752 182.786 184.673C125.354 242.598 94.0468 319.552 94.3751 401.388L94.3752 401.396L94.3752 401.403C94.6215 450.919 106.932 500.116 130.123 543.619L130.13 543.632L130.137 543.646L131.875 546.89V653.125V668.125H146.875H253.11L256.354 669.863L256.368 669.87L256.381 669.877C299.884 693.068 349.081 705.378 398.597 705.625L398.635 705.625H398.672H400C481.283 705.625 557.736 674.23 615.319 617.222Z" stroke="black" stroke-width="30"/>
</svg>
