<svg width="24" height="24" viewBox="0 0 24 24" fill="none" xmlns="http://www.w3.org/2000/svg">
<path d="M20.415 4.24001C20.985 4.24001 21.415 4.74001 21.185 5.67001L18.395 18.82C18.2 19.755 17.635 19.98 16.855 19.545L10.2 14.63C10.1742 14.6115 10.1531 14.5871 10.1386 14.5588C10.1241 14.5306 10.1166 14.4993 10.1166 14.4675C10.1166 14.4357 10.1241 14.4044 10.1386 14.3762C10.1531 14.3479 10.1742 14.3235 10.2 14.305L17.885 7.36501C18.235 7.05501 17.81 6.90501 17.35 7.18501L7.70498 13.27C7.67573 13.2891 7.64252 13.3012 7.60787 13.3056C7.57322 13.3099 7.53803 13.3063 7.50498 13.295L3.40998 12C2.49998 11.735 2.49998 11.11 3.61498 10.665L20 4.34501C20.1299 4.28267 20.271 4.24696 20.415 4.24001Z" stroke="black" stroke-width="1.5" stroke-linecap="round" stroke-linejoin="round"/>
</svg>
